# xmcd CD database file
#
# Track frame offsets:
#	150
#	64595
#	107325
#	168225
#	217036
#	264927
#
# Disc length: 4068 seconds
#
# Revision: 0
# Processed by: cddbd v1.5.1PL0 Copyright (c) Steve Scherf et al.
# Submitted via: CDex 1.51
#
DISCID=480fe206
DTITLE=George Benson Quartet - The George Benson Quartet
DYEAR=1973
DGENRE=Jazz
TTITLE0=Love for Sale
TTITLE1=The Masquerade Is Over
TTITLE2=Love Walked In
TTITLE3=There Will Never Be Another You
TTITLE4=Witchcraft
TTITLE5=All The Things You Are
EXTD=YEAR: 1973
EXTT0=
EXTT1=
EXTT2=
EXTT3=
EXTT4=
EXTT5=
PLAYORDER=
